<svg xmlns="http://www.w3.org/2000/svg" xmlnsXlink="http://www.w3.org/1999/xlink" width="300" zoomAndPan="magnify" viewBox="0 0 675 225" height="100" preserveAspectRatio="xMidYMid meet" version="1.0"><defs><g/><clipPath id="169586a44e"><path d="M 4.300781 9.03125 L 409.300781 9.03125 L 409.300781 211.53125 L 4.300781 211.53125 Z M 4.300781 9.03125 " clipRule="nonzero"/></clipPath></defs><g clipPath="url(#169586a44e)"><path fill="#ccccff" d="M 4.300781 -92.320312 L 409.300781 -92.320312 L 409.300781 312.679688 L 4.300781 312.679688 Z M 4.300781 -92.320312 " fillOpacity="1" fillRule="nonzero"/></g><g fill="#000000" fillOpacity="1"><g transform="translate(4.301683, 185.744652)"><g><path d="M 103.796875 -134.796875 C 105.984375 -134.796875 107.078125 -133.707031 107.078125 -131.53125 L 107.078125 -114.578125 C 107.078125 -112.398438 105.984375 -111.3125 103.796875 -111.3125 L 70.484375 -111.3125 C 69.710938 -111.3125 69.328125 -110.925781 69.328125 -110.15625 L 69.328125 -3.28125 C 69.328125 -1.09375 68.234375 0 66.046875 0 L 45.453125 0 C 43.265625 0 42.171875 -1.09375 42.171875 -3.28125 L 42.171875 -110.15625 C 42.171875 -110.925781 41.785156 -111.3125 41.015625 -111.3125 L 8.671875 -111.3125 C 6.484375 -111.3125 5.390625 -112.398438 5.390625 -114.578125 L 5.390625 -131.53125 C 5.390625 -133.707031 6.484375 -134.796875 8.671875 -134.796875 Z M 103.796875 -134.796875 "/></g></g></g><g fill="#000000" fillOpacity="1"><g transform="translate(116.95506, 185.744652)"><g><path d="M 53.921875 1.546875 C 43.003906 1.546875 33.691406 -1.273438 25.984375 -6.921875 C 18.285156 -12.578125 13.023438 -20.285156 10.203125 -30.046875 C 8.410156 -36.078125 7.515625 -42.625 7.515625 -49.6875 C 7.515625 -57.519531 8.476562 -64.320312 10.40625 -70.09375 C 13.351562 -79.59375 18.644531 -87.039062 26.28125 -92.4375 C 33.925781 -97.832031 43.203125 -100.53125 54.109375 -100.53125 C 64.640625 -100.53125 73.660156 -97.832031 81.171875 -92.4375 C 88.679688 -87.039062 93.910156 -79.660156 96.859375 -70.296875 C 98.785156 -64.390625 99.75 -57.644531 99.75 -50.0625 C 99.75 -43.394531 98.914062 -36.914062 97.25 -30.625 C 94.300781 -20.601562 89.003906 -12.734375 81.359375 -7.015625 C 73.722656 -1.304688 64.578125 1.546875 53.921875 1.546875 Z M 53.921875 -21.765625 C 58.023438 -21.765625 61.550781 -23.046875 64.5 -25.609375 C 67.457031 -28.179688 69.582031 -31.710938 70.875 -36.203125 C 71.894531 -39.671875 72.40625 -44.164062 72.40625 -49.6875 C 72.40625 -55.070312 71.894531 -59.628906 70.875 -63.359375 C 69.582031 -67.722656 67.457031 -71.125 64.5 -73.5625 C 61.550781 -76 57.894531 -77.21875 53.53125 -77.21875 C 49.300781 -77.21875 45.707031 -76 42.75 -73.5625 C 39.800781 -71.125 37.679688 -67.722656 36.390625 -63.359375 C 35.367188 -59.628906 34.859375 -55.070312 34.859375 -49.6875 C 34.859375 -44.425781 35.367188 -39.929688 36.390625 -36.203125 C 37.679688 -31.710938 39.832031 -28.179688 42.84375 -25.609375 C 45.863281 -23.046875 49.554688 -21.765625 53.921875 -21.765625 Z M 53.921875 -21.765625 "/></g></g></g><g fill="#000000" fillOpacity="1"><g transform="translate(224.216472, 185.744652)"><g><path d="M 66.828125 -80.5 C 66.828125 -78.3125 65.734375 -77.21875 63.546875 -77.21875 L 46.21875 -77.21875 C 45.445312 -77.21875 45.0625 -76.832031 45.0625 -76.0625 L 45.0625 -36.203125 C 45.0625 -31.960938 45.925781 -28.847656 47.65625 -26.859375 C 49.394531 -24.867188 52.191406 -23.875 56.046875 -23.875 L 61.4375 -23.875 C 63.613281 -23.875 64.703125 -22.785156 64.703125 -20.609375 L 64.703125 -4.046875 C 64.703125 -1.992188 63.613281 -0.835938 61.4375 -0.578125 C 56.550781 -0.316406 53.019531 -0.1875 50.84375 -0.1875 C 40.1875 -0.1875 32.222656 -1.984375 26.953125 -5.578125 C 21.691406 -9.179688 19 -15.859375 18.875 -25.609375 L 18.875 -76.0625 C 18.875 -76.832031 18.488281 -77.21875 17.71875 -77.21875 L 7.890625 -77.21875 C 5.710938 -77.21875 4.625 -78.3125 4.625 -80.5 L 4.625 -95.71875 C 4.625 -97.894531 5.710938 -98.984375 7.890625 -98.984375 L 17.71875 -98.984375 C 18.488281 -98.984375 18.875 -99.367188 18.875 -100.140625 L 18.875 -121.90625 C 18.875 -124.082031 19.960938 -125.171875 22.140625 -125.171875 L 41.796875 -125.171875 C 43.972656 -125.171875 45.0625 -124.082031 45.0625 -121.90625 L 45.0625 -100.140625 C 45.0625 -99.367188 45.445312 -98.984375 46.21875 -98.984375 L 63.546875 -98.984375 C 65.734375 -98.984375 66.828125 -97.894531 66.828125 -95.71875 Z M 66.828125 -80.5 "/></g></g></g><g fill="#000000" fillOpacity="1"><g transform="translate(297.39303, 185.744652)"><g><path d="M 57.765625 -21.375 C 66.242188 -21.757812 72.726562 -24.710938 77.21875 -30.234375 C 77.988281 -31.128906 78.828125 -31.578125 79.734375 -31.578125 C 80.492188 -31.578125 81.195312 -31.257812 81.84375 -30.625 L 92.828125 -20.03125 C 93.597656 -19.257812 93.984375 -18.488281 93.984375 -17.71875 C 93.984375 -16.820312 93.722656 -16.050781 93.203125 -15.40625 C 88.972656 -10.144531 83.550781 -6.003906 76.9375 -2.984375 C 70.320312 0.0351562 63.097656 1.546875 55.265625 1.546875 C 43.453125 1.546875 33.660156 -1.46875 25.890625 -7.5 C 18.128906 -13.539062 12.898438 -21.828125 10.203125 -32.359375 C 8.660156 -38.003906 7.890625 -43.972656 7.890625 -50.265625 C 7.890625 -57.710938 8.597656 -64.003906 10.015625 -69.140625 C 12.578125 -78.640625 17.742188 -86.273438 25.515625 -92.046875 C 33.285156 -97.828125 42.5 -100.71875 53.15625 -100.71875 C 65.738281 -100.71875 75.71875 -96.992188 83.09375 -89.546875 C 90.476562 -82.097656 95.257812 -71.632812 97.4375 -58.15625 C 97.957031 -53.914062 98.34375 -49.226562 98.59375 -44.09375 C 98.59375 -41.914062 97.503906 -40.828125 95.328125 -40.828125 L 36.203125 -40.828125 C 35.429688 -40.828125 35.046875 -40.441406 35.046875 -39.671875 C 35.429688 -36.972656 35.878906 -34.984375 36.390625 -33.703125 C 37.679688 -29.722656 40.21875 -26.671875 44 -24.546875 C 47.789062 -22.429688 52.378906 -21.375 57.765625 -21.375 Z M 52.765625 -77.21875 C 48.660156 -77.21875 45.226562 -76.222656 42.46875 -74.234375 C 39.707031 -72.242188 37.8125 -69.453125 36.78125 -65.859375 C 36.132812 -63.421875 35.75 -61.816406 35.625 -61.046875 C 35.5 -60.273438 35.820312 -59.890625 36.59375 -59.890625 L 69.328125 -59.890625 C 69.972656 -59.890625 70.296875 -60.144531 70.296875 -60.65625 C 70.296875 -62.070312 70.035156 -63.550781 69.515625 -65.09375 C 68.359375 -68.8125 66.367188 -71.757812 63.546875 -73.9375 C 60.722656 -76.125 57.128906 -77.21875 52.765625 -77.21875 Z M 52.765625 -77.21875 "/></g></g></g><g fill="#000000" fillOpacity="1"><g transform="translate(402.728747, 185.744652)"><g><path d="M 8.859375 -45.25 C 6.671875 -45.25 5.578125 -46.34375 5.578125 -48.53125 L 5.578125 -65.28125 C 5.578125 -67.46875 6.671875 -68.5625 8.859375 -68.5625 L 69.90625 -68.5625 C 72.082031 -68.5625 73.171875 -67.46875 73.171875 -65.28125 L 73.171875 -48.53125 C 73.171875 -46.34375 72.082031 -45.25 69.90625 -45.25 Z M 8.859375 -45.25 "/></g></g></g><g fill="#000000" fillOpacity="1"><g transform="translate(481.489828, 185.744652)"><g><path d="M 13.671875 0 C 11.492188 0 10.40625 -1.09375 10.40625 -3.28125 L 10.40625 -131.53125 C 10.40625 -133.707031 11.492188 -134.796875 13.671875 -134.796875 L 34.28125 -134.796875 C 36.457031 -134.796875 37.546875 -133.707031 37.546875 -131.53125 L 37.546875 -3.28125 C 37.546875 -1.09375 36.457031 0 34.28125 0 Z M 13.671875 0 "/></g></g></g><g fill="#000000" fillOpacity="1"><g transform="translate(529.439732, 185.744652)"><g><path d="M 13.671875 0 C 11.492188 0 10.40625 -1.09375 10.40625 -3.28125 L 10.40625 -131.53125 C 10.40625 -133.707031 11.492188 -134.796875 13.671875 -134.796875 L 34.28125 -134.796875 C 36.457031 -134.796875 37.546875 -133.707031 37.546875 -131.53125 L 37.546875 -3.28125 C 37.546875 -1.09375 36.457031 0 34.28125 0 Z M 13.671875 0 "/></g></g></g><g fill="#000000" fillOpacity="1"><g transform="translate(577.389636, 185.744652)"><g><path d="M 9.4375 38.328125 C 8.539062 38.328125 8.09375 37.234375 8.09375 35.046875 L 8.09375 19.25 C 8.09375 17.070312 8.476562 15.984375 9.25 15.984375 L 10.40625 15.984375 C 18.363281 15.984375 24.039062 14.988281 27.4375 13 C 30.84375 11.007812 33.316406 6.929688 34.859375 0.765625 C 35.109375 0.128906 35.109375 -0.378906 34.859375 -0.765625 L 3.84375 -95.328125 C 3.71875 -95.585938 3.65625 -95.972656 3.65625 -96.484375 C 3.65625 -97.253906 3.910156 -97.863281 4.421875 -98.3125 C 4.941406 -98.757812 5.648438 -98.984375 6.546875 -98.984375 L 28.6875 -98.984375 C 30.488281 -98.984375 31.710938 -98.082031 32.359375 -96.28125 L 48.140625 -38.90625 C 48.273438 -38.382812 48.535156 -38.125 48.921875 -38.125 C 49.304688 -38.125 49.5625 -38.382812 49.6875 -38.90625 L 64.703125 -96.09375 C 65.085938 -98.019531 66.304688 -98.984375 68.359375 -98.984375 L 90.515625 -98.984375 C 91.671875 -98.984375 92.503906 -98.628906 93.015625 -97.921875 C 93.523438 -97.210938 93.585938 -96.347656 93.203125 -95.328125 L 60.28125 3.65625 C 57.070312 13.03125 53.796875 20.0625 50.453125 24.75 C 47.117188 29.4375 42.429688 32.867188 36.390625 35.046875 C 30.359375 37.234375 21.820312 38.328125 10.78125 38.328125 Z M 9.4375 38.328125 "/></g></g></g></svg>
