<svg xmlns="http://www.w3.org/2000/svg" xmlns:xlink="http://www.w3.org/1999/xlink" width="900" zoomAndPan="magnify" viewBox="0 0 675 225" height="300" preserveAspectRatio="xMidYMid meet" version="1.0"><defs><g/><clipPath id="cb41bbe380"><path d="M 2.234375 6.484375 L 407.234375 6.484375 L 407.234375 208.984375 L 2.234375 208.984375 Z M 2.234375 6.484375 " clip-rule="nonzero"/></clipPath></defs><g clip-path="url(#cb41bbe380)"><path fill="#ccccff" d="M 2.234375 -94.84375 L 407.234375 -94.84375 L 407.234375 310.15625 L 2.234375 310.15625 Z M 2.234375 -94.84375 " fill-opacity="1" fill-rule="nonzero"/></g><g fill="#000000" fill-opacity="1"><g transform="translate(2.235877, 183.153101)"><g><path d="M 103.78125 -134.765625 C 105.957031 -134.765625 107.046875 -133.675781 107.046875 -131.5 L 107.046875 -114.5625 C 107.046875 -112.375 105.957031 -111.28125 103.78125 -111.28125 L 70.46875 -111.28125 C 69.695312 -111.28125 69.3125 -110.894531 69.3125 -110.125 L 69.3125 -3.265625 C 69.3125 -1.085938 68.21875 0 66.03125 0 L 45.4375 0 C 43.257812 0 42.171875 -1.085938 42.171875 -3.265625 L 42.171875 -110.125 C 42.171875 -110.894531 41.785156 -111.28125 41.015625 -111.28125 L 8.65625 -111.28125 C 6.476562 -111.28125 5.390625 -112.375 5.390625 -114.5625 L 5.390625 -131.5 C 5.390625 -133.675781 6.476562 -134.765625 8.65625 -134.765625 Z M 103.78125 -134.765625 "/></g></g></g><g fill="#000000" fill-opacity="1"><g transform="translate(114.860679, 183.153101)"><g><path d="M 53.90625 1.546875 C 43 1.546875 33.691406 -1.273438 25.984375 -6.921875 C 18.285156 -12.578125 13.023438 -20.28125 10.203125 -30.03125 C 8.410156 -36.0625 7.515625 -42.609375 7.515625 -49.671875 C 7.515625 -57.503906 8.472656 -64.304688 10.390625 -70.078125 C 13.347656 -79.578125 18.644531 -87.019531 26.28125 -92.40625 C 33.914062 -97.800781 43.1875 -100.5 54.09375 -100.5 C 64.625 -100.5 73.644531 -97.800781 81.15625 -92.40625 C 88.664062 -87.019531 93.894531 -79.644531 96.84375 -70.28125 C 98.769531 -64.375 99.734375 -57.632812 99.734375 -50.0625 C 99.734375 -43.382812 98.898438 -36.898438 97.234375 -30.609375 C 94.273438 -20.597656 88.976562 -12.734375 81.34375 -7.015625 C 73.707031 -1.304688 64.5625 1.546875 53.90625 1.546875 Z M 53.90625 -21.75 C 58.007812 -21.75 61.535156 -23.03125 64.484375 -25.59375 C 67.441406 -28.164062 69.5625 -31.703125 70.84375 -36.203125 C 71.875 -39.660156 72.390625 -44.148438 72.390625 -49.671875 C 72.390625 -55.066406 71.875 -59.625 70.84375 -63.34375 C 69.5625 -67.707031 67.441406 -71.109375 64.484375 -73.546875 C 61.535156 -75.984375 57.882812 -77.203125 53.53125 -77.203125 C 49.289062 -77.203125 45.691406 -75.984375 42.734375 -73.546875 C 39.785156 -71.109375 37.671875 -67.707031 36.390625 -63.34375 C 35.359375 -59.625 34.84375 -55.066406 34.84375 -49.671875 C 34.84375 -44.410156 35.359375 -39.921875 36.390625 -36.203125 C 37.671875 -31.703125 39.816406 -28.164062 42.828125 -25.59375 C 45.847656 -23.03125 49.539062 -21.75 53.90625 -21.75 Z M 53.90625 -21.75 "/></g></g></g><g fill="#000000" fill-opacity="1"><g transform="translate(222.094884, 183.153101)"><g><path d="M 66.8125 -80.484375 C 66.8125 -78.296875 65.71875 -77.203125 63.53125 -77.203125 L 46.203125 -77.203125 C 45.429688 -77.203125 45.046875 -76.816406 45.046875 -76.046875 L 45.046875 -36.203125 C 45.046875 -31.960938 45.910156 -28.847656 47.640625 -26.859375 C 49.378906 -24.867188 52.175781 -23.875 56.03125 -23.875 L 61.421875 -23.875 C 63.597656 -23.875 64.6875 -22.78125 64.6875 -20.59375 L 64.6875 -4.046875 C 64.6875 -1.992188 63.597656 -0.835938 61.421875 -0.578125 C 56.535156 -0.316406 53.003906 -0.1875 50.828125 -0.1875 C 40.171875 -0.1875 32.210938 -1.984375 26.953125 -5.578125 C 21.691406 -9.171875 19 -15.847656 18.875 -25.609375 L 18.875 -76.046875 C 18.875 -76.816406 18.488281 -77.203125 17.71875 -77.203125 L 7.890625 -77.203125 C 5.710938 -77.203125 4.625 -78.296875 4.625 -80.484375 L 4.625 -95.6875 C 4.625 -97.875 5.710938 -98.96875 7.890625 -98.96875 L 17.71875 -98.96875 C 18.488281 -98.96875 18.875 -99.347656 18.875 -100.109375 L 18.875 -121.875 C 18.875 -124.050781 19.960938 -125.140625 22.140625 -125.140625 L 41.78125 -125.140625 C 43.957031 -125.140625 45.046875 -124.050781 45.046875 -121.875 L 45.046875 -100.109375 C 45.046875 -99.347656 45.429688 -98.96875 46.203125 -98.96875 L 63.53125 -98.96875 C 65.71875 -98.96875 66.8125 -97.875 66.8125 -95.6875 Z M 66.8125 -80.484375 "/></g></g></g><g fill="#000000" fill-opacity="1"><g transform="translate(295.25288, 183.153101)"><g><path d="M 57.765625 -21.375 C 66.234375 -21.757812 72.710938 -24.710938 77.203125 -30.234375 C 77.972656 -31.128906 78.804688 -31.578125 79.703125 -31.578125 C 80.472656 -31.578125 81.179688 -31.253906 81.828125 -30.609375 L 92.796875 -20.015625 C 93.566406 -19.253906 93.953125 -18.488281 93.953125 -17.71875 C 93.953125 -16.8125 93.695312 -16.039062 93.1875 -15.40625 C 88.945312 -10.144531 83.519531 -6.003906 76.90625 -2.984375 C 70.300781 0.0351562 63.082031 1.546875 55.25 1.546875 C 43.445312 1.546875 33.660156 -1.46875 25.890625 -7.5 C 18.128906 -13.539062 12.898438 -21.820312 10.203125 -32.34375 C 8.660156 -37.988281 7.890625 -43.957031 7.890625 -50.25 C 7.890625 -57.695312 8.597656 -63.988281 10.015625 -69.125 C 12.578125 -78.613281 17.738281 -86.242188 25.5 -92.015625 C 33.269531 -97.796875 42.484375 -100.6875 53.140625 -100.6875 C 65.710938 -100.6875 75.6875 -96.960938 83.0625 -89.515625 C 90.445312 -82.078125 95.234375 -71.617188 97.421875 -58.140625 C 97.929688 -53.910156 98.316406 -49.226562 98.578125 -44.09375 C 98.578125 -41.90625 97.484375 -40.8125 95.296875 -40.8125 L 36.203125 -40.8125 C 35.429688 -40.8125 35.046875 -40.425781 35.046875 -39.65625 C 35.429688 -36.96875 35.878906 -34.976562 36.390625 -33.6875 C 37.671875 -29.707031 40.203125 -26.660156 43.984375 -24.546875 C 47.773438 -22.429688 52.367188 -21.375 57.765625 -21.375 Z M 52.75 -77.203125 C 48.644531 -77.203125 45.210938 -76.207031 42.453125 -74.21875 C 39.691406 -72.226562 37.800781 -69.4375 36.78125 -65.84375 C 36.132812 -63.40625 35.75 -61.800781 35.625 -61.03125 C 35.488281 -60.257812 35.804688 -59.875 36.578125 -59.875 L 69.3125 -59.875 C 69.957031 -59.875 70.28125 -60.128906 70.28125 -60.640625 C 70.28125 -62.054688 70.019531 -63.535156 69.5 -65.078125 C 68.34375 -68.796875 66.351562 -71.742188 63.53125 -73.921875 C 60.707031 -76.109375 57.113281 -77.203125 52.75 -77.203125 Z M 52.75 -77.203125 "/></g></g></g><g fill="#000000" fill-opacity="1"><g transform="translate(400.561879, 183.153101)"><g><path d="M 8.859375 -45.25 C 6.671875 -45.25 5.578125 -46.335938 5.578125 -48.515625 L 5.578125 -65.265625 C 5.578125 -67.453125 6.671875 -68.546875 8.859375 -68.546875 L 69.890625 -68.546875 C 72.066406 -68.546875 73.15625 -67.453125 73.15625 -65.265625 L 73.15625 -48.515625 C 73.15625 -46.335938 72.066406 -45.25 69.890625 -45.25 Z M 8.859375 -45.25 "/></g></g></g><g fill="#000000" fill-opacity="1"><g transform="translate(479.302981, 183.153101)"><g><path d="M 13.671875 0 C 11.484375 0 10.390625 -1.085938 10.390625 -3.265625 L 10.390625 -131.5 C 10.390625 -133.675781 11.484375 -134.765625 13.671875 -134.765625 L 34.265625 -134.765625 C 36.453125 -134.765625 37.546875 -133.675781 37.546875 -131.5 L 37.546875 -3.265625 C 37.546875 -1.085938 36.453125 0 34.265625 0 Z M 13.671875 0 "/></g></g></g><g fill="#000000" fill-opacity="1"><g transform="translate(527.240722, 183.153101)"><g><path d="M 13.671875 0 C 11.484375 0 10.390625 -1.085938 10.390625 -3.265625 L 10.390625 -131.5 C 10.390625 -133.675781 11.484375 -134.765625 13.671875 -134.765625 L 34.265625 -134.765625 C 36.453125 -134.765625 37.546875 -133.675781 37.546875 -131.5 L 37.546875 -3.265625 C 37.546875 -1.085938 36.453125 0 34.265625 0 Z M 13.671875 0 "/></g></g></g><g fill="#000000" fill-opacity="1"><g transform="translate(575.178463, 183.153101)"><g><path d="M 9.4375 38.3125 C 8.539062 38.3125 8.09375 37.222656 8.09375 35.046875 L 8.09375 19.25 C 8.09375 17.070312 8.472656 15.984375 9.234375 15.984375 L 10.390625 15.984375 C 18.347656 15.984375 24.023438 14.988281 27.421875 13 C 30.828125 11.007812 33.300781 6.929688 34.84375 0.765625 C 35.101562 0.128906 35.101562 -0.378906 34.84375 -0.765625 L 3.84375 -95.296875 C 3.71875 -95.554688 3.65625 -95.941406 3.65625 -96.453125 C 3.65625 -97.222656 3.910156 -97.832031 4.421875 -98.28125 C 4.941406 -98.738281 5.648438 -98.96875 6.546875 -98.96875 L 28.6875 -98.96875 C 30.476562 -98.96875 31.695312 -98.066406 32.34375 -96.265625 L 48.140625 -38.890625 C 48.265625 -38.378906 48.519531 -38.125 48.90625 -38.125 C 49.289062 -38.125 49.546875 -38.378906 49.671875 -38.890625 L 64.6875 -96.078125 C 65.070312 -98.003906 66.289062 -98.96875 68.34375 -98.96875 L 90.484375 -98.96875 C 91.640625 -98.96875 92.472656 -98.613281 92.984375 -97.90625 C 93.503906 -97.195312 93.570312 -96.328125 93.1875 -95.296875 L 60.265625 3.65625 C 57.054688 13.03125 53.78125 20.054688 50.4375 24.734375 C 47.101562 29.421875 42.421875 32.851562 36.390625 35.03125 C 30.359375 37.21875 21.820312 38.3125 10.78125 38.3125 Z M 9.4375 38.3125 "/></g></g></g></svg>